<svg viewBox="0 0 100 100" xmlns="http://www.w3.org/2000/svg">
  <!-- Outer circle with gradient -->
  <defs>
    <linearGradient id="grad" x1="0%" y1="0%" x2="100%" y2="100%">
      <stop offset="0%" style="stop-color:#10b981;stop-opacity:1" />
      <stop offset="100%" style="stop-color:#34d399;stop-opacity:1" />
    </linearGradient>
  </defs>
  
  <!-- Background circle -->
  <circle cx="50" cy="50" r="45" fill="url(#grad)" opacity="0.1"/>
  
  <!-- Main ring -->
  <circle cx="50" cy="50" r="40" fill="none" stroke="url(#grad)" stroke-width="3"/>
  
  <!-- Letter O stylized -->
  <path d="M 50 20 C 35 20, 25 35, 25 50 C 25 65, 35 80, 50 80 C 65 80, 75 65, 75 50 C 75 35, 65 20, 50 20 Z M 50 30 C 60 30, 65 40, 65 50 C 65 60, 60 70, 50 70 C 40 70, 35 60, 35 50 C 35 40, 40 30, 50 30 Z" 
        fill="url(#grad)" opacity="0.9"/>
  
  <!-- Center dot -->
  <circle cx="50" cy="50" r="5" fill="url(#grad)"/>
</svg>